# xmcd
#
# Track frame offsets:
#	150
#	27450
#	49425
#	65850
#	76800
#	84000
#
# Disc length: 1458 seconds
#
# Revision: 1
# Processed by: cddbd v1.5.1PL0 Copyright (c) Steve Scherf et al.
# Submitted via: CDex 1.50Beta5
#
DISCID=4705b006
DTITLE=くるり - もしもし
DYEAR=1900
DGENRE=Rock
TTITLE0=東京
TTITLE1=虹
TTITLE2=夜行列車と烏瓜
TTITLE3=恋するクラゲ
TTITLE4=スプラッシュ
TTITLE5=蒼い涙
EXTD=
EXTT0=
EXTT1=
EXTT2=
EXTT3=
EXTT4=
EXTT5=
PLAYORDER=
